<svg width="111" height="24" viewBox="0 0 111 24" fill="none" xmlns="http://www.w3.org/2000/svg">
<g clip-path="url(#clip0_842_2)">
<path d="M28.856 23.12C28.248 23.12 27.816 22.8 27.56 22.16C27.32 21.52 27.2 20.496 27.2 19.088C27.2 17.008 27.496 15.032 28.088 13.16C28.232 12.696 28.464 12.36 28.784 12.152C29.12 11.928 29.584 11.816 30.176 11.816C30.496 11.816 30.72 11.856 30.848 11.936C30.976 12.016 31.04 12.168 31.04 12.392C31.04 12.648 30.92 13.224 30.68 14.12C30.52 14.76 30.392 15.32 30.296 15.8C30.2 16.28 30.12 16.872 30.056 17.576C30.584 16.2 31.176 15.08 31.832 14.216C32.488 13.352 33.128 12.736 33.752 12.368C34.392 12 34.976 11.816 35.504 11.816C36.544 11.816 37.064 12.336 37.064 13.376C37.064 13.584 36.992 14.088 36.848 14.888C36.72 15.528 36.656 15.928 36.656 16.088C36.656 16.648 36.856 16.928 37.256 16.928C37.704 16.928 38.28 16.576 38.984 15.872C39.192 15.664 39.408 15.56 39.632 15.56C39.84 15.56 40 15.656 40.112 15.848C40.24 16.024 40.304 16.264 40.304 16.568C40.304 17.16 40.144 17.624 39.824 17.96C39.376 18.424 38.848 18.824 38.24 19.16C37.648 19.48 37.016 19.64 36.344 19.64C35.496 19.64 34.848 19.424 34.4 18.992C33.968 18.56 33.752 17.976 33.752 17.24C33.752 17 33.776 16.76 33.824 16.52C33.856 16.2 33.872 15.984 33.872 15.872C33.872 15.616 33.784 15.488 33.608 15.488C33.368 15.488 33.048 15.76 32.648 16.304C32.264 16.832 31.88 17.536 31.496 18.416C31.112 19.296 30.8 20.224 30.56 21.2C30.384 21.952 30.176 22.464 29.936 22.736C29.712 22.992 29.352 23.12 28.856 23.12ZM48.7779 17.648C48.9859 17.648 49.1459 17.744 49.2579 17.936C49.3859 18.128 49.4499 18.392 49.4499 18.728C49.4499 19.368 49.2979 19.864 48.9939 20.216C48.4019 20.936 47.5619 21.6 46.4739 22.208C45.4019 22.816 44.2499 23.12 43.0179 23.12C41.3379 23.12 40.0339 22.664 39.1059 21.752C38.1779 20.84 37.7139 19.592 37.7139 18.008C37.7139 16.904 37.9459 15.88 38.4099 14.936C38.8739 13.976 39.5139 13.216 40.3299 12.656C41.1619 12.096 42.0979 11.816 43.1379 11.816C44.0659 11.816 44.8099 12.096 45.3699 12.656C45.9299 13.2 46.2099 13.944 46.2099 14.888C46.2099 15.992 45.8099 16.944 45.0099 17.744C44.2259 18.528 42.8899 19.152 41.0019 19.616C41.4019 20.352 42.1619 20.72 43.2819 20.72C44.0019 20.72 44.8179 20.472 45.7299 19.976C46.6579 19.464 47.4579 18.8 48.1299 17.984C48.3219 17.76 48.5379 17.648 48.7779 17.648ZM42.7299 14.168C42.1379 14.168 41.6339 14.512 41.2179 15.2C40.8179 15.888 40.6179 16.72 40.6179 17.696V17.744C41.5619 17.52 42.3059 17.184 42.8499 16.736C43.3939 16.288 43.6659 15.768 43.6659 15.176C43.6659 14.872 43.5779 14.632 43.4019 14.456C43.2419 14.264 43.0179 14.168 42.7299 14.168ZM50.3306 23.12C49.3386 23.12 48.5466 22.76 47.9546 22.04C47.3626 21.32 47.0666 20.376 47.0666 19.208C47.0666 17.928 47.3626 16.72 47.9546 15.584C48.5466 14.432 49.3306 13.512 50.3066 12.824C51.2986 12.12 52.3466 11.768 53.4506 11.768C53.8026 11.768 54.0346 11.84 54.1466 11.984C54.2746 12.112 54.3786 12.352 54.4586 12.704C54.7946 12.64 55.1466 12.608 55.5146 12.608C56.2986 12.608 56.6906 12.888 56.6906 13.448C56.6906 13.784 56.5706 14.584 56.3306 15.848C55.9626 17.688 55.7786 18.968 55.7786 19.688C55.7786 19.928 55.8346 20.12 55.9466 20.264C56.0746 20.408 56.2346 20.48 56.4266 20.48C56.7306 20.48 57.0986 20.288 57.5306 19.904C57.9626 19.504 58.5466 18.864 59.2826 17.984C59.4746 17.76 59.6906 17.648 59.9306 17.648C60.1386 17.648 60.2986 17.744 60.4106 17.936C60.5386 18.128 60.6026 18.392 60.6026 18.728C60.6026 19.368 60.4506 19.864 60.1466 20.216C59.4906 21.032 58.7946 21.72 58.0586 22.28C57.3226 22.84 56.6106 23.12 55.9226 23.12C55.3946 23.12 54.9066 22.944 54.4586 22.592C54.0266 22.224 53.6986 21.728 53.4746 21.104C52.6426 22.448 51.5946 23.12 50.3306 23.12ZM51.1946 20.696C51.5466 20.696 51.8826 20.488 52.2026 20.072C52.5226 19.656 52.7546 19.104 52.8986 18.416L53.7866 14C53.1146 14.016 52.4906 14.272 51.9146 14.768C51.3546 15.248 50.9066 15.888 50.5706 16.688C50.2346 17.488 50.0666 18.336 50.0666 19.232C50.0666 19.728 50.1626 20.096 50.3546 20.336C50.5626 20.576 50.8426 20.696 51.1946 20.696ZM72.284 17.648C72.492 17.648 72.652 17.744 72.764 17.936C72.892 18.128 72.956 18.392 72.956 18.728C72.956 19.368 72.804 19.864 72.5 20.216C71.844 21.016 71.124 21.704 70.34 22.28C69.556 22.84 68.78 23.12 68.012 23.12C66.796 23.12 65.868 22.408 65.228 20.984C64.556 21.832 63.964 22.4 63.452 22.688C62.956 22.976 62.372 23.12 61.7 23.12C60.724 23.12 59.916 22.76 59.276 22.04C58.652 21.304 58.34 20.352 58.34 19.184C58.34 17.904 58.612 16.72 59.156 15.632C59.7 14.528 60.444 13.632 61.388 12.944C62.348 12.24 63.42 11.824 64.604 11.696C64.908 8.592 65.484 5.944 66.332 3.752C67.196 1.544 68.324 0.439999 69.716 0.439999C70.404 0.439999 70.972 0.751999 71.42 1.376C71.884 2 72.116 2.944 72.116 4.208C72.116 6 71.676 8.096 70.796 10.496C69.916 12.896 68.74 15.36 67.268 17.888C67.332 18.816 67.468 19.48 67.676 19.88C67.9 20.28 68.18 20.48 68.516 20.48C68.948 20.48 69.388 20.288 69.836 19.904C70.284 19.52 70.884 18.88 71.636 17.984C71.828 17.76 72.044 17.648 72.284 17.648ZM69.452 2.792C69.148 2.792 68.844 3.336 68.54 4.424C68.236 5.496 67.972 6.904 67.748 8.648C67.54 10.392 67.388 12.216 67.292 14.12C69.084 10.216 69.98 7.08 69.98 4.712C69.98 4.104 69.924 3.632 69.812 3.296C69.716 2.96 69.596 2.792 69.452 2.792ZM62.54 20.696C62.844 20.696 63.148 20.576 63.452 20.336C63.756 20.08 64.14 19.616 64.604 18.944C64.444 18.08 64.364 17.112 64.364 16.04C64.364 15.656 64.38 15.032 64.412 14.168C63.532 14.44 62.796 15.032 62.204 15.944C61.628 16.84 61.34 17.84 61.34 18.944C61.34 20.112 61.74 20.696 62.54 20.696ZM73.7212 23.12C72.7292 23.12 71.9372 22.76 71.3452 22.04C70.7532 21.32 70.4572 20.376 70.4572 19.208C70.4572 17.928 70.7532 16.72 71.3452 15.584C71.9372 14.432 72.7212 13.512 73.6972 12.824C74.6892 12.12 75.7372 11.768 76.8412 11.768C77.1932 11.768 77.4252 11.84 77.5372 11.984C77.6652 12.112 77.7692 12.352 77.8492 12.704C78.1852 12.64 78.5372 12.608 78.9052 12.608C79.6892 12.608 80.0812 12.888 80.0812 13.448C80.0812 13.784 79.9612 14.584 79.7212 15.848C79.3532 17.688 79.1692 18.968 79.1692 19.688C79.1692 19.928 79.2252 20.12 79.3372 20.264C79.4652 20.408 79.6252 20.48 79.8172 20.48C80.1212 20.48 80.4892 20.288 80.9212 19.904C81.3532 19.504 81.9372 18.864 82.6732 17.984C82.8652 17.76 83.0812 17.648 83.3212 17.648C83.5292 17.648 83.6892 17.744 83.8012 17.936C83.9292 18.128 83.9932 18.392 83.9932 18.728C83.9932 19.368 83.8412 19.864 83.5372 20.216C82.8812 21.032 82.1852 21.72 81.4492 22.28C80.7132 22.84 80.0012 23.12 79.3132 23.12C78.7852 23.12 78.2972 22.944 77.8492 22.592C77.4172 22.224 77.0892 21.728 76.8652 21.104C76.0332 22.448 74.9852 23.12 73.7212 23.12ZM74.5852 20.696C74.9372 20.696 75.2732 20.488 75.5932 20.072C75.9132 19.656 76.1452 19.104 76.2892 18.416L77.1772 14C76.5052 14.016 75.8812 14.272 75.3052 14.768C74.7452 15.248 74.2972 15.888 73.9612 16.688C73.6252 17.488 73.4572 18.336 73.4572 19.232C73.4572 19.728 73.5532 20.096 73.7452 20.336C73.9532 20.576 74.2332 20.696 74.5852 20.696ZM94.8106 15.632C95.0186 15.632 95.1786 15.736 95.2906 15.944C95.4026 16.152 95.4586 16.416 95.4586 16.736C95.4586 17.136 95.4026 17.448 95.2906 17.672C95.1786 17.88 95.0026 18.024 94.7626 18.104C93.8026 18.44 92.7466 18.632 91.5946 18.68C91.2746 20.008 90.6666 21.08 89.7706 21.896C88.8906 22.712 87.9146 23.12 86.8426 23.12C85.2266 23.12 84.0506 22.504 83.3146 21.272C82.5786 20.04 82.2106 18.256 82.2106 15.92C82.2106 13.856 82.4666 11.616 82.9786 9.2C83.4906 6.768 84.2346 4.704 85.2106 3.008C86.2026 1.296 87.3786 0.439999 88.7386 0.439999C89.4746 0.439999 90.0666 0.759999 90.5146 1.4C90.9626 2.024 91.1866 2.84 91.1866 3.848C91.1866 5.16 90.9386 6.464 90.4426 7.76C89.9466 9.056 89.1226 10.416 87.9706 11.84C89.0426 11.92 89.9146 12.368 90.5866 13.184C91.2586 13.984 91.6586 14.976 91.7866 16.16C92.5386 16.112 93.4346 15.952 94.4746 15.68C94.5706 15.648 94.6826 15.632 94.8106 15.632ZM88.1866 2.816C87.8666 2.816 87.5146 3.296 87.1306 4.256C86.7626 5.2 86.4186 6.488 86.0986 8.12C85.7786 9.752 85.5386 11.536 85.3786 13.472C86.4346 11.536 87.2746 9.832 87.8986 8.36C88.5386 6.872 88.8586 5.552 88.8586 4.4C88.8586 3.888 88.7946 3.496 88.6666 3.224C88.5546 2.952 88.3946 2.816 88.1866 2.816ZM86.9386 20.576C87.4346 20.576 87.8746 20.368 88.2586 19.952C88.6426 19.536 88.8986 18.936 89.0266 18.152C88.5306 17.816 88.1466 17.376 87.8746 16.832C87.6186 16.288 87.4906 15.712 87.4906 15.104C87.4906 14.88 87.5226 14.576 87.5866 14.192H87.5146C86.8586 14.192 86.3066 14.52 85.8586 15.176C85.4266 15.816 85.2106 16.68 85.2106 17.768C85.2106 18.68 85.3786 19.376 85.7146 19.856C86.0666 20.336 86.4746 20.576 86.9386 20.576ZM102.482 17.648C102.69 17.648 102.85 17.744 102.962 17.936C103.09 18.128 103.154 18.392 103.154 18.728C103.154 19.368 103.002 19.864 102.698 20.216C102.01 21.064 101.258 21.76 100.442 22.304C99.6424 22.848 98.7304 23.12 97.7064 23.12C96.2984 23.12 95.2504 22.48 94.5624 21.2C93.8904 19.92 93.5544 18.264 93.5544 16.232C93.5544 14.28 93.8024 12.056 94.2984 9.56C94.8104 7.064 95.5544 4.92 96.5304 3.128C97.5224 1.336 98.6984 0.439999 100.058 0.439999C100.826 0.439999 101.426 0.799999 101.858 1.52C102.306 2.224 102.53 3.24 102.53 4.568C102.53 6.472 102.002 8.68 100.946 11.192C99.8904 13.704 98.4584 16.192 96.6504 18.656C96.7624 19.312 96.9464 19.784 97.2024 20.072C97.4584 20.344 97.7944 20.48 98.2104 20.48C98.8664 20.48 99.4424 20.296 99.9384 19.928C100.434 19.544 101.066 18.896 101.834 17.984C102.026 17.76 102.242 17.648 102.482 17.648ZM99.5304 2.816C99.1624 2.816 98.7464 3.48 98.2824 4.808C97.8184 6.136 97.4104 7.784 97.0584 9.752C96.7064 11.72 96.5144 13.608 96.4824 15.416C97.6184 13.544 98.5224 11.672 99.1944 9.8C99.8664 7.912 100.202 6.192 100.202 4.64C100.202 3.424 99.9784 2.816 99.5304 2.816ZM109.807 18.368C110.015 18.368 110.175 18.464 110.287 18.656C110.415 18.848 110.479 19.112 110.479 19.448C110.479 20.024 110.343 20.52 110.071 20.936C109.623 21.624 109.031 22.16 108.295 22.544C107.575 22.928 106.711 23.12 105.703 23.12C104.167 23.12 102.975 22.664 102.127 21.752C101.279 20.824 100.854 19.576 100.854 18.008C100.854 16.904 101.087 15.88 101.551 14.936C102.015 13.976 102.655 13.216 103.471 12.656C104.303 12.096 105.239 11.816 106.279 11.816C107.207 11.816 107.951 12.096 108.511 12.656C109.071 13.2 109.351 13.944 109.351 14.888C109.351 15.992 108.951 16.944 108.151 17.744C107.367 18.528 106.023 19.152 104.119 19.616C104.503 20.352 105.151 20.72 106.062 20.72C106.719 20.72 107.255 20.568 107.671 20.264C108.103 19.96 108.599 19.448 109.159 18.728C109.351 18.488 109.567 18.368 109.807 18.368ZM105.871 14.168C105.279 14.168 104.775 14.512 104.359 15.2C103.959 15.888 103.759 16.72 103.759 17.696V17.744C104.703 17.52 105.447 17.184 105.991 16.736C106.535 16.288 106.807 15.768 106.807 15.176C106.807 14.872 106.719 14.632 106.543 14.456C106.383 14.264 106.159 14.168 105.871 14.168Z" fill="url(#paint0_linear_842_2)"/>
<path d="M12 8V22" stroke="#AB72CC" stroke-width="2.5" stroke-linecap="round" stroke-linejoin="round"/>
<path d="M3 19C2.73478 19 2.48043 18.8946 2.29289 18.7071C2.10536 18.5196 2 18.2652 2 18V5C2 4.73478 2.10536 4.48043 2.29289 4.29289C2.48043 4.10536 2.73478 4 3 4H8C9.06087 4 10.0783 4.42143 10.8284 5.17157C11.5786 5.92172 12 6.93913 12 8C12 6.93913 12.4214 5.92172 13.1716 5.17157C13.9217 4.42143 14.9391 4 16 4H21C21.2652 4 21.5196 4.10536 21.7071 4.29289C21.8946 4.48043 22 4.73478 22 5V18C22 18.2652 21.8946 18.5196 21.7071 18.7071C21.5196 18.8946 21.2652 19 21 19H15C14.2044 19 13.4413 19.3161 12.8787 19.8787C12.3161 20.4413 12 21.2044 12 22C12 21.2044 11.6839 20.4413 11.1213 19.8787C10.5587 19.3161 9.79565 19 9 19H3Z" stroke="#AB72CC" stroke-width="2.5" stroke-linecap="round" stroke-linejoin="round"/>
</g>
<defs>
<linearGradient id="paint0_linear_842_2" x1="26" y1="34" x2="110" y2="34" gradientUnits="userSpaceOnUse">
<stop stop-color="#AB72CC"/>
<stop offset="1" stop-color="#4990CC"/>
</linearGradient>
<clipPath id="clip0_842_2">
<rect width="111" height="24" fill="white"/>
</clipPath>
</defs>
</svg>
